<svg width="924" height="179" viewBox="0 0 924 179" fill="none" xmlns="http://www.w3.org/2000/svg">
<path d="M58.4769 175.903H23.6945V89.1951H0V60.9646H23.6935V40.8766C23.6935 17.0723 34.1732 0 68.8615 0C76.1982 0 87.7163 1.47877 87.7163 1.47877V27.6923H75.6185C63.2917 27.6923 58.4788 31.4418 58.4788 41.808V60.9646H87.2548L84.6923 89.1951H58.4778L58.4769 175.903ZM138.286 58.7086C137.779 58.7086 137.258 58.7271 136.742 58.74C104.49 58.74 89.7332 83.0003 89.7332 117.438C89.7332 160.821 108.874 178.184 136.994 178.184C153.082 178.184 163.652 171.413 170.077 158.776V175.915H203.16V60.9766H170.077V78.6526C164.831 67.2803 153.966 58.8434 138.286 58.7086V58.7086ZM146.698 85.8683C160.244 85.8683 168.375 95.3169 168.375 111.389L168.406 127.804C168.406 138.636 161.691 151.309 146.698 151.309C123.649 151.309 124.265 126.421 124.265 118.132C124.265 90.2483 136.545 85.8683 146.698 85.8683V85.8683ZM216.521 118.452C216.521 104.485 215.852 58.7834 275.394 58.7834C299.296 58.7834 309.276 66.3831 309.276 66.3831L301.254 91.2628C301.254 91.2628 291.287 85.7742 278.299 85.7742C261.665 85.7742 251.05 95.4175 251.05 112.385L251.069 124.551C251.069 140.854 261.31 151.737 278.334 151.737C290.166 151.737 301.071 146.197 301.071 146.197L309.072 170.557C309.072 170.557 299.946 178.205 275.562 178.205C218.868 178.205 216.522 137.202 216.522 118.452H216.521ZM503.254 58.74C535.507 58.74 550.496 83.0003 550.496 117.438C550.496 160.821 531.354 178.184 503.235 178.184C487.146 178.184 475.254 171.414 468.829 158.776V175.915L436.162 175.902V3.49477L470.846 0.469846V77.0954C475.852 63.6895 492.303 58.74 503.255 58.74H503.254ZM493.53 85.8683C479.984 85.8683 470.846 95.3169 470.846 111.389L470.814 127.804C470.793 138.636 477.142 151.309 493.53 151.309C516.58 151.309 515.964 126.421 515.964 118.132C515.964 90.2483 503.684 85.8683 493.53 85.8683ZM369.455 58.8351C332.874 58.8351 313.561 78.78 313.561 114.224V120.81C313.561 166.813 340.682 178.657 373.015 178.657C404.443 178.657 418.669 169.866 418.669 169.866L412.179 146.457C412.179 146.457 395.445 153.577 377.174 153.577C358.232 153.577 350.086 148.749 347.998 130.546H421.442V111.766C421.442 73.3182 399.767 58.8342 369.454 58.8342L369.455 58.8351ZM370.337 82.2757C382.999 82.2757 391.205 90.0406 390.754 108.049H348.062C348.802 89.0954 357.651 82.2766 370.337 82.2766V82.2757ZM619.654 58.6772C582.088 58.6772 562.311 79.8471 562.311 117.785C562.311 169.837 596.402 178.216 619.717 178.216C653.849 178.216 676.556 159.84 676.556 118.257C676.556 74.9769 651.024 58.6772 619.654 58.6772V58.6772ZM619.182 85.9625C635.7 85.9625 642.246 98.3252 642.246 112.398V124.496C642.246 141.544 633.087 151.404 619.119 151.404C606.055 151.404 596.874 142.181 596.874 124.496V112.398C596.874 93.5372 607.799 85.9625 619.182 85.9625V85.9625ZM745.652 58.6772C708.086 58.6772 688.309 79.8471 688.309 117.785C688.309 169.837 722.4 178.216 745.715 178.216C779.846 178.216 802.554 159.84 802.554 118.257C802.554 74.9769 777.021 58.6772 745.652 58.6772V58.6772ZM745.18 85.9625C761.698 85.9625 768.243 98.3252 768.243 112.398V124.496C768.243 141.544 759.084 151.404 745.117 151.404C732.054 151.404 722.873 142.181 722.873 124.496V112.398C722.873 93.5372 733.797 85.9625 745.18 85.9625V85.9625ZM815.661 175.903V3.49477L850.446 0.470769V116.03L884.956 60.9655H921.69L885.69 117.996L923.077 175.903H886.238L850.446 119.675V175.903H815.661Z" fill="white"/>
</svg>
